<svg width="265" height="115" viewBox="0 0 265 115" fill="none" xmlns="http://www.w3.org/2000/svg">
<path d="M50.2436 108.331L6 82.7868V31.6987L50.2436 6.15466L94.4871 31.6987V82.7868L50.2436 108.331Z" fill="#414141" stroke="#EFEFEF" stroke-width="4"/>
<path d="M50.2435 81.9411L30.5312 70.5602V47.7983L50.2435 36.4174L69.9559 47.7983V70.5602L50.2435 81.9411Z" fill="#F0F4F8" stroke="#EFEFEF" stroke-width="4"/>
<path d="M50.2435 6.15466V36.4174" stroke="#EFEFEF" stroke-width="4"/>
<path d="M6 82.7868L30.5312 70.5602" stroke="#EFEFEF" stroke-width="4"/>
<path d="M69.9559 70.5602L94.4871 82.7868" stroke="#EFEFEF" stroke-width="4"/>
<path d="M124.159 58.2623H116.854L116.815 54.2389H122.948C124.029 54.2389 124.914 54.1022 125.604 53.8287C126.294 53.5423 126.809 53.1321 127.147 52.5983C127.499 52.0514 127.675 51.3873 127.675 50.6061C127.675 49.7207 127.505 49.0045 127.167 48.4576C126.841 47.9108 126.327 47.5136 125.624 47.2662C124.934 47.0188 124.042 46.8951 122.948 46.8951H118.886V70.7428H113.026V42.3053H122.948C124.602 42.3053 126.08 42.4615 127.382 42.774C128.697 43.0865 129.81 43.5618 130.721 44.1998C131.633 44.8378 132.33 45.6451 132.811 46.6217C133.293 47.5852 133.534 48.7311 133.534 50.0592C133.534 51.2311 133.267 52.3118 132.733 53.3014C132.212 54.291 131.386 55.0983 130.253 55.7233C129.133 56.3483 127.668 56.6933 125.858 56.7584L124.159 58.2623ZM123.905 70.7428H115.253L117.538 66.1725H123.905C124.934 66.1725 125.774 66.0097 126.425 65.6842C127.076 65.3457 127.557 64.8899 127.87 64.317C128.182 63.7441 128.339 63.0865 128.339 62.3444C128.339 61.511 128.195 60.7884 127.909 60.1764C127.636 59.5644 127.193 59.0957 126.581 58.7701C125.969 58.4316 125.162 58.2623 124.159 58.2623H118.514L118.554 54.2389H125.585L126.932 55.8209C128.664 55.7949 130.057 56.1009 131.112 56.7389C132.18 57.3639 132.955 58.1777 133.436 59.1803C133.931 60.1829 134.179 61.2571 134.179 62.403C134.179 64.2259 133.781 65.7623 132.987 67.0123C132.193 68.2493 131.027 69.1803 129.491 69.8053C127.968 70.4303 126.106 70.7428 123.905 70.7428ZM144.491 68.36L150.096 49.61H156.132L147.636 73.9264C147.453 74.4602 147.206 75.0332 146.893 75.6451C146.594 76.2571 146.184 76.8365 145.663 77.3834C145.155 77.9433 144.511 78.399 143.729 78.7506C142.961 79.1022 142.017 79.278 140.897 79.278C140.363 79.278 139.927 79.2454 139.589 79.1803C139.25 79.1152 138.846 79.024 138.378 78.9069V74.7858C138.521 74.7858 138.671 74.7858 138.827 74.7858C138.983 74.7988 139.133 74.8053 139.276 74.8053C140.018 74.8053 140.624 74.7207 141.093 74.5514C141.561 74.3821 141.939 74.1217 142.225 73.7701C142.512 73.4316 142.74 72.9889 142.909 72.442L144.491 68.36ZM142.147 49.61L146.737 64.9225L147.538 70.8795L143.71 71.2897L136.112 49.61H142.147ZM168.729 49.61V53.5944H156.425V49.61H168.729ZM159.471 44.3951H165.096V64.3756C165.096 64.9876 165.175 65.4563 165.331 65.7819C165.5 66.1074 165.748 66.3352 166.073 66.4655C166.399 66.5826 166.809 66.6412 167.304 66.6412C167.655 66.6412 167.968 66.6282 168.241 66.6022C168.527 66.5631 168.768 66.524 168.964 66.485L168.983 70.6256C168.501 70.7819 167.981 70.9056 167.421 70.9967C166.861 71.0878 166.242 71.1334 165.565 71.1334C164.328 71.1334 163.248 70.9316 162.323 70.528C161.412 70.1113 160.708 69.4472 160.214 68.5358C159.719 67.6243 159.471 66.4264 159.471 64.942V44.3951ZM181.659 71.1334C180.018 71.1334 178.547 70.873 177.245 70.3522C175.943 69.8183 174.836 69.0826 173.925 68.1451C173.026 67.2076 172.336 66.1204 171.854 64.8834C171.373 63.6334 171.132 62.3053 171.132 60.899V60.1178C171.132 58.5162 171.36 57.0514 171.815 55.7233C172.271 54.3951 172.922 53.2428 173.768 52.2662C174.628 51.2897 175.669 50.541 176.893 50.0201C178.117 49.4863 179.498 49.2194 181.034 49.2194C182.531 49.2194 183.86 49.4668 185.018 49.9615C186.177 50.4563 187.147 51.1595 187.929 52.0709C188.723 52.9824 189.322 54.0761 189.725 55.3522C190.129 56.6152 190.331 58.0214 190.331 59.5709V61.9147H173.534V58.1647H184.804V57.735C184.804 56.9537 184.66 56.2571 184.374 55.6451C184.1 55.0201 183.684 54.5253 183.124 54.1608C182.564 53.7962 181.848 53.6139 180.975 53.6139C180.233 53.6139 179.595 53.7767 179.061 54.1022C178.527 54.4277 178.091 54.8834 177.753 55.4694C177.427 56.0553 177.18 56.7454 177.011 57.5397C176.854 58.3209 176.776 59.1803 176.776 60.1178V60.899C176.776 61.7454 176.893 62.5267 177.128 63.2428C177.375 63.9589 177.72 64.5774 178.163 65.0983C178.619 65.6191 179.166 66.0227 179.804 66.3092C180.455 66.5957 181.19 66.7389 182.011 66.7389C183.026 66.7389 183.97 66.5436 184.843 66.153C185.728 65.7493 186.49 65.1438 187.128 64.3365L189.862 67.3053C189.419 67.9433 188.814 68.5553 188.046 69.1412C187.291 69.7272 186.379 70.2089 185.311 70.5865C184.244 70.9511 183.026 71.1334 181.659 71.1334ZM205.018 58.2623H197.714L197.675 54.2389H203.807C204.888 54.2389 205.774 54.1022 206.464 53.8287C207.154 53.5423 207.668 53.1321 208.007 52.5983C208.358 52.0514 208.534 51.3873 208.534 50.6061C208.534 49.7207 208.365 49.0045 208.026 48.4576C207.701 47.9108 207.186 47.5136 206.483 47.2662C205.793 47.0188 204.901 46.8951 203.807 46.8951H199.745V70.7428H193.886V42.3053H203.807C205.461 42.3053 206.939 42.4615 208.241 42.774C209.556 43.0865 210.669 43.5618 211.581 44.1998C212.492 44.8378 213.189 45.6451 213.671 46.6217C214.152 47.5852 214.393 48.7311 214.393 50.0592C214.393 51.2311 214.126 52.3118 213.593 53.3014C213.072 54.291 212.245 55.0983 211.112 55.7233C209.992 56.3483 208.527 56.6933 206.718 56.7584L205.018 58.2623ZM204.764 70.7428H196.112L198.397 66.1725H204.764C205.793 66.1725 206.633 66.0097 207.284 65.6842C207.935 65.3457 208.417 64.8899 208.729 64.317C209.042 63.7441 209.198 63.0865 209.198 62.3444C209.198 61.511 209.055 60.7884 208.768 60.1764C208.495 59.5644 208.052 59.0957 207.44 58.7701C206.828 58.4316 206.021 58.2623 205.018 58.2623H199.374L199.413 54.2389H206.444L207.792 55.8209C209.524 55.7949 210.917 56.1009 211.971 56.7389C213.039 57.3639 213.814 58.1777 214.296 59.1803C214.791 60.1829 215.038 61.2571 215.038 62.403C215.038 64.2259 214.641 65.7623 213.846 67.0123C213.052 68.2493 211.887 69.1803 210.35 69.8053C208.827 70.4303 206.965 70.7428 204.764 70.7428ZM218.182 60.3912V59.9811C218.182 58.4316 218.404 57.0058 218.846 55.7037C219.289 54.3886 219.934 53.2493 220.78 52.2858C221.626 51.3222 222.668 50.5735 223.905 50.0397C225.142 49.4928 226.561 49.2194 228.163 49.2194C229.764 49.2194 231.19 49.4928 232.44 50.0397C233.69 50.5735 234.738 51.3222 235.585 52.2858C236.444 53.2493 237.095 54.3886 237.538 55.7037C237.981 57.0058 238.202 58.4316 238.202 59.9811V60.3912C238.202 61.9277 237.981 63.3535 237.538 64.6686C237.095 65.9707 236.444 67.11 235.585 68.0865C234.738 69.0501 233.697 69.7988 232.46 70.3326C231.223 70.8665 229.804 71.1334 228.202 71.1334C226.6 71.1334 225.175 70.8665 223.925 70.3326C222.688 69.7988 221.639 69.0501 220.78 68.0865C219.934 67.11 219.289 65.9707 218.846 64.6686C218.404 63.3535 218.182 61.9277 218.182 60.3912ZM223.807 59.9811V60.3912C223.807 61.2767 223.886 62.1035 224.042 62.8717C224.198 63.6399 224.445 64.317 224.784 64.903C225.136 65.4759 225.591 65.9251 226.151 66.2506C226.711 66.5761 227.395 66.7389 228.202 66.7389C228.983 66.7389 229.654 66.5761 230.214 66.2506C230.774 65.9251 231.223 65.4759 231.561 64.903C231.9 64.317 232.147 63.6399 232.304 62.8717C232.473 62.1035 232.557 61.2767 232.557 60.3912V59.9811C232.557 59.1217 232.473 58.3144 232.304 57.5592C232.147 56.791 231.893 56.1139 231.542 55.528C231.203 54.929 230.754 54.4602 230.194 54.1217C229.634 53.7832 228.957 53.6139 228.163 53.6139C227.369 53.6139 226.692 53.7832 226.132 54.1217C225.585 54.4602 225.136 54.929 224.784 55.528C224.445 56.1139 224.198 56.791 224.042 57.5592C223.886 58.3144 223.807 59.1217 223.807 59.9811ZM245.761 49.61L249.257 56.0358L252.85 49.61H258.846L252.87 59.942L259.12 70.7428H253.104L249.296 63.9459L245.487 70.7428H239.471L245.721 59.942L239.745 49.61H245.761Z" fill="black"/>
</svg>
